REM DIRINDEX 1\2\4\8,1\2\4\9,1\2\4\10,1\2\5\11,1\2\5\12,1\2\5\13,1\2\5\14,1\2\5\15,1\3\6\16,1\3\6\17,1\3\6\18,1\3\7\19,1\3\7\20,1\3\7\21,1\3\7\22,1\3\7\23
REM DIRNAME "folder01","folder02","folder03","folder04","folder05","folder06","folder07","folder08","folder09","folder10","folder11","folder12","folder13","folder14","folder15","folder16","folder17","folder18","folder19","folder20","folder21","folder22","folder23"
TITLE ""
FILE "LR_black_phrase_B09.mp3" MP3
  TRACK 01 AUDIO
    TITLE "0:"
    INDEX 01 00:00:00
  TRACK 02 AUDIO
    TITLE "19:cjc171_13701"
    INDEX 01 00:00:14
  TRACK 03 AUDIO
    TITLE "0:"
    INDEX 01 00:01:22
  TRACK 04 AUDIO
    TITLE "20:cjc171_13702"
    INDEX 01 00:01:63
  TRACK 05 AUDIO
    TITLE "0:"
    INDEX 01 00:02:68
  TRACK 06 AUDIO
    TITLE "21:cjc171_13703"
    INDEX 01 00:03:67
  TRACK 07 AUDIO
    TITLE "0:"
    INDEX 01 00:05:55
  TRACK 08 AUDIO
    TITLE "22:cjc171_13704"
    INDEX 01 00:06:19
  TRACK 09 AUDIO
    TITLE "0:"
    INDEX 01 00:08:41
  TRACK 10 AUDIO
    TITLE "23:cjc171_13705"
    INDEX 01 00:08:74
  TRACK 11 AUDIO
    TITLE "0:"
    INDEX 01 00:11:20
  TRACK 12 AUDIO
    TITLE "19:cjc171_13706"
    INDEX 01 00:12:27
  TRACK 13 AUDIO
    TITLE "0:"
    INDEX 01 00:13:44
  TRACK 14 AUDIO
    TITLE "20:cjc171_13707"
    INDEX 01 00:14:08
  TRACK 15 AUDIO
    TITLE "0:"
    INDEX 01 00:16:68
  TRACK 16 AUDIO
    TITLE "21:cjc171_13708"
    INDEX 01 00:17:70
  TRACK 17 AUDIO
    TITLE "0:"
    INDEX 01 00:20:38
  TRACK 18 AUDIO
    TITLE "22:cjc171_13709"
    INDEX 01 00:21:03
  TRACK 19 AUDIO
    TITLE "0:"
    INDEX 01 00:23:49
  TRACK 20 AUDIO
    TITLE "23:cjc171_13710"
    INDEX 01 00:24:03
  TRACK 21 AUDIO
    TITLE "0:"
    INDEX 01 00:26:47
  TRACK 22 AUDIO
    TITLE "19:cjc171_13711"
    INDEX 01 00:27:52
  TRACK 23 AUDIO
    TITLE "0:"
    INDEX 01 00:28:58
  TRACK 24 AUDIO
    TITLE "20:cjc171_13712"
    INDEX 01 00:29:20
  TRACK 25 AUDIO
    TITLE "0:"
    INDEX 01 00:32:38
  TRACK 26 AUDIO
    TITLE "21:cjc171_13713"
    INDEX 01 00:33:37
  TRACK 27 AUDIO
    TITLE "0:"
    INDEX 01 00:35:11
  TRACK 28 AUDIO
    TITLE "22:cjc171_13714"
    INDEX 01 00:35:50
  TRACK 29 AUDIO
    TITLE "0:"
    INDEX 01 00:37:29
  TRACK 30 AUDIO
    TITLE "23:cjc171_13715"
    INDEX 01 00:37:60
  TRACK 31 AUDIO
    TITLE "0:"
    INDEX 01 00:39:40
  TRACK 32 AUDIO
    TITLE "19:cjc171_13716"
    INDEX 01 00:40:37
  TRACK 33 AUDIO
    TITLE "0:"
    INDEX 01 00:41:54
  TRACK 34 AUDIO
    TITLE "20:cjc171_13717"
    INDEX 01 00:42:15
  TRACK 35 AUDIO
    TITLE "0:"
    INDEX 01 00:44:70
  TRACK 36 AUDIO
    TITLE "21:cjc171_13718"
    INDEX 01 00:45:70
  TRACK 37 AUDIO
    TITLE "0:"
    INDEX 01 00:47:61
  TRACK 38 AUDIO
    TITLE "22:cjc171_13719"
    INDEX 01 00:48:23
  TRACK 39 AUDIO
    TITLE "0:"
    INDEX 01 00:49:71
  TRACK 40 AUDIO
    TITLE "23:cjc171_13720"
    INDEX 01 00:50:22
  TRACK 41 AUDIO
    TITLE "0:"
    INDEX 01 00:51:72
  TRACK 42 AUDIO
    TITLE "19:cjc171_13721"
    INDEX 01 00:52:74
  TRACK 43 AUDIO
    TITLE "0:"
    INDEX 01 00:54:16
  TRACK 44 AUDIO
    TITLE "20:cjc171_13722"
    INDEX 01 00:54:49
  TRACK 45 AUDIO
    TITLE "0:"
    INDEX 01 00:55:52
  TRACK 46 AUDIO
    TITLE "21:cjc171_13723"
    INDEX 01 00:56:52
  TRACK 47 AUDIO
    TITLE "0:"
    INDEX 01 00:58:45
  TRACK 48 AUDIO
    TITLE "22:cjc171_13724"
    INDEX 01 00:59:05
  TRACK 49 AUDIO
    TITLE "0:"
    INDEX 01 01:00:69
  TRACK 50 AUDIO
    TITLE "23:cjc171_13725"
    INDEX 01 01:01:14
  TRACK 51 AUDIO
    TITLE "0:"
    INDEX 01 01:03:05
  TRACK 52 AUDIO
    TITLE "19:cjc171_13726"
    INDEX 01 01:04:01
  TRACK 53 AUDIO
    TITLE "0:"
    INDEX 01 01:05:27
  TRACK 54 AUDIO
    TITLE "20:cjc171_13727"
    INDEX 01 01:05:63
  TRACK 55 AUDIO
    TITLE "0:"
    INDEX 01 01:08:24
  TRACK 56 AUDIO
    TITLE "21:cjc171_13728"
    INDEX 01 01:09:19
  TRACK 57 AUDIO
    TITLE "0:"
    INDEX 01 01:10:66
  TRACK 58 AUDIO
    TITLE "22:cjc171_13729"
    INDEX 01 01:11:26
  TRACK 59 AUDIO
    TITLE "0:"
    INDEX 01 01:13:17
  TRACK 60 AUDIO
    TITLE "23:cjc171_13730"
    INDEX 01 01:13:33
  TRACK 61 AUDIO
    TITLE "0:"
    INDEX 01 01:15:28
  TRACK 62 AUDIO
    TITLE "19:cjc171_13731"
    INDEX 01 01:16:29
  TRACK 63 AUDIO
    TITLE "0:"
    INDEX 01 01:17:40
  TRACK 64 AUDIO
    TITLE "20:cjc171_13732"
    INDEX 01 01:18:06
  TRACK 65 AUDIO
    TITLE "0:"
    INDEX 01 01:20:17
  TRACK 66 AUDIO
    TITLE "21:cjc171_13733"
    INDEX 01 01:21:15
  TRACK 67 AUDIO
    TITLE "0:"
    INDEX 01 01:24:48
  TRACK 68 AUDIO
    TITLE "22:cjc171_13734"
    INDEX 01 01:25:12
  TRACK 69 AUDIO
    TITLE "0:"
    INDEX 01 01:28:15
  TRACK 70 AUDIO
    TITLE "23:cjc171_13735"
    INDEX 01 01:28:44
  TRACK 71 AUDIO
    TITLE "0:"
    INDEX 01 01:31:46
  TRACK 72 AUDIO
    TITLE "19:cjc171_13736"
    INDEX 01 01:32:50
  TRACK 73 AUDIO
    TITLE "0:"
    INDEX 01 01:33:65
  TRACK 74 AUDIO
    TITLE "20:cjc171_13737"
    INDEX 01 01:34:29
  TRACK 75 AUDIO
    TITLE "0:"
    INDEX 01 01:36:73
  TRACK 76 AUDIO
    TITLE "21:cjc171_13738"
    INDEX 01 01:37:72
  TRACK 77 AUDIO
    TITLE "0:"
    INDEX 01 01:40:02
  TRACK 78 AUDIO
    TITLE "22:cjc171_13739"
    INDEX 01 01:40:41
  TRACK 79 AUDIO
    TITLE "0:"
    INDEX 01 01:43:04
  TRACK 80 AUDIO
    TITLE "23:cjc171_13740"
    INDEX 01 01:43:32
  TRACK 81 AUDIO
    TITLE "0:"
    INDEX 01 01:45:68
  TRACK 82 AUDIO
    TITLE "19:cjc171_13741"
    INDEX 01 01:46:71
  TRACK 83 AUDIO
    TITLE "0:"
    INDEX 01 01:48:19
  TRACK 84 AUDIO
    TITLE "20:cjc171_13742"
    INDEX 01 01:48:60
  TRACK 85 AUDIO
    TITLE "0:"
    INDEX 01 01:51:02
  TRACK 86 AUDIO
    TITLE "21:cjc171_13743"
    INDEX 01 01:52:01
  TRACK 87 AUDIO
    TITLE "0:"
    INDEX 01 01:54:69
  TRACK 88 AUDIO
    TITLE "22:cjc171_13744"
    INDEX 01 01:55:35
  TRACK 89 AUDIO
    TITLE "0:"
    INDEX 01 01:58:22
  TRACK 90 AUDIO
    TITLE "23:cjc171_13745"
    INDEX 01 01:58:51
  TRACK 91 AUDIO
    TITLE "0:"
    INDEX 01 02:01:40
  TRACK 92 AUDIO
    TITLE "19:cjc171_13746"
    INDEX 01 02:02:39
  TRACK 93 AUDIO
    TITLE "0:"
    INDEX 01 02:03:46
  TRACK 94 AUDIO
    TITLE "20:cjc171_13747"
    INDEX 01 02:04:07
  TRACK 95 AUDIO
    TITLE "0:"
    INDEX 01 02:05:35
  TRACK 96 AUDIO
    TITLE "21:cjc171_13748"
    INDEX 01 02:06:35
  TRACK 97 AUDIO
    TITLE "0:"
    INDEX 01 02:08:61
  TRACK 98 AUDIO
    TITLE "22:cjc171_13749"
    INDEX 01 02:09:23
  TRACK 99 AUDIO
    TITLE "0:"
    INDEX 01 02:11:42
  TRACK 100 AUDIO
    TITLE "23:cjc171_13750"
    INDEX 01 02:11:65
  TRACK 101 AUDIO
    TITLE "0:"
    INDEX 01 02:14:11
  TRACK 102 AUDIO
    TITLE "19:cjc171_13751"
    INDEX 01 02:15:04
  TRACK 103 AUDIO
    TITLE "0:"
    INDEX 01 02:16:29
  TRACK 104 AUDIO
    TITLE "20:cjc171_13752"
    INDEX 01 02:16:67
  TRACK 105 AUDIO
    TITLE "0:"
    INDEX 01 02:18:38
  TRACK 106 AUDIO
    TITLE "21:cjc171_13753"
    INDEX 01 02:19:40
  TRACK 107 AUDIO
    TITLE "0:"
    INDEX 01 02:21:52
  TRACK 108 AUDIO
    TITLE "22:cjc171_13754"
    INDEX 01 02:22:08
  TRACK 109 AUDIO
    TITLE "0:"
    INDEX 01 02:24:23
  TRACK 110 AUDIO
    TITLE "23:cjc171_13755"
    INDEX 01 02:24:48
  TRACK 111 AUDIO
    TITLE "0:"
    INDEX 01 02:26:61
  TRACK 112 AUDIO
    TITLE "19:cjc171_13756"
    INDEX 01 02:27:61
  TRACK 113 AUDIO
    TITLE "0:"
    INDEX 01 02:29:18
  TRACK 114 AUDIO
    TITLE "20:cjc171_13757"
    INDEX 01 02:29:56
  TRACK 115 AUDIO
    TITLE "0:"
    INDEX 01 02:32:34
  TRACK 116 AUDIO
    TITLE "21:cjc171_13758"
    INDEX 01 02:33:36
  TRACK 117 AUDIO
    TITLE "0:"
    INDEX 01 02:36:32
  TRACK 118 AUDIO
    TITLE "22:cjc171_13759"
    INDEX 01 02:36:67
  TRACK 119 AUDIO
    TITLE "0:"
    INDEX 01 02:39:38
  TRACK 120 AUDIO
    TITLE "23:cjc171_13760"
    INDEX 01 02:39:58
  TRACK 121 AUDIO
    TITLE "0:"
    INDEX 01 02:42:27
  TRACK 122 AUDIO
    TITLE "19:cjc171_13761"
    INDEX 01 02:43:26
  TRACK 123 AUDIO
    TITLE "0:"
    INDEX 01 02:44:37
  TRACK 124 AUDIO
    TITLE "20:cjc171_13762"
    INDEX 01 02:45:02
  TRACK 125 AUDIO
    TITLE "0:"
    INDEX 01 02:47:44
  TRACK 126 AUDIO
    TITLE "21:cjc171_13763"
    INDEX 01 02:48:45
  TRACK 127 AUDIO
    TITLE "0:"
    INDEX 01 02:50:07
  TRACK 128 AUDIO
    TITLE "22:cjc171_13764"
    INDEX 01 02:50:46
  TRACK 129 AUDIO
    TITLE "0:"
    INDEX 01 02:52:39
  TRACK 130 AUDIO
    TITLE "23:cjc171_13765"
    INDEX 01 02:52:70
  TRACK 131 AUDIO
    TITLE "0:"
    INDEX 01 02:54:65
  TRACK 132 AUDIO
    TITLE "19:cjc171_13766"
    INDEX 01 02:55:71
  TRACK 133 AUDIO
    TITLE "0:"
    INDEX 01 02:57:07
  TRACK 134 AUDIO
    TITLE "20:cjc171_13767"
    INDEX 01 02:57:48
  TRACK 135 AUDIO
    TITLE "0:"
    INDEX 01 02:59:64
  TRACK 136 AUDIO
    TITLE "21:cjc171_13768"
    INDEX 01 03:00:62
  TRACK 137 AUDIO
    TITLE "0:"
    INDEX 01 03:04:24
  TRACK 138 AUDIO
    TITLE "22:cjc171_13769"
    INDEX 01 03:04:64
  TRACK 139 AUDIO
    TITLE "0:"
    INDEX 01 03:08:20
  TRACK 140 AUDIO
    TITLE "23:cjc171_13770"
    INDEX 01 03:08:50
  TRACK 141 AUDIO
    TITLE "0:"
    INDEX 01 03:12:04
  TRACK 142 AUDIO
    TITLE "19:cjc171_13771"
    INDEX 01 03:13:10
  TRACK 143 AUDIO
    TITLE "0:"
    INDEX 01 03:14:17
  TRACK 144 AUDIO
    TITLE "20:cjc171_13772"
    INDEX 01 03:14:54
  TRACK 145 AUDIO
    TITLE "0:"
    INDEX 01 03:17:13
  TRACK 146 AUDIO
    TITLE "21:cjc171_13773"
    INDEX 01 03:18:13
  TRACK 147 AUDIO
    TITLE "0:"
    INDEX 01 03:19:42
  TRACK 148 AUDIO
    TITLE "22:cjc171_13774"
    INDEX 01 03:20:04
  TRACK 149 AUDIO
    TITLE "0:"
    INDEX 01 03:22:07
  TRACK 150 AUDIO
    TITLE "23:cjc171_13775"
    INDEX 01 03:22:34
  TRACK 151 AUDIO
    TITLE "0:"
    INDEX 01 03:24:37
  TRACK 152 AUDIO
    TITLE "19:cjc171_13776"
    INDEX 01 03:25:34
  TRACK 153 AUDIO
    TITLE "0:"
    INDEX 01 03:26:48
  TRACK 154 AUDIO
    TITLE "20:cjc171_13777"
    INDEX 01 03:27:18
  TRACK 155 AUDIO
    TITLE "0:"
    INDEX 01 03:29:66
  TRACK 156 AUDIO
    TITLE "21:cjc171_13778"
    INDEX 01 03:30:65
  TRACK 157 AUDIO
    TITLE "0:"
    INDEX 01 03:32:68
  TRACK 158 AUDIO
    TITLE "22:cjc171_13779"
    INDEX 01 03:33:30
  TRACK 159 AUDIO
    TITLE "0:"
    INDEX 01 03:35:52
  TRACK 160 AUDIO
    TITLE "23:cjc171_13780"
    INDEX 01 03:36:01
  TRACK 161 AUDIO
    TITLE "0:"
    INDEX 01 03:38:25
  TRACK 162 AUDIO
    TITLE "19:cjc171_13781"
    INDEX 01 03:39:19
  TRACK 163 AUDIO
    TITLE "0:"
    INDEX 01 03:40:38
  TRACK 164 AUDIO
    TITLE "20:cjc171_13782"
    INDEX 01 03:41:00
  TRACK 165 AUDIO
    TITLE "0:"
    INDEX 01 03:42:33
  TRACK 166 AUDIO
    TITLE "21:cjc171_13783"
    INDEX 01 03:43:32
  TRACK 167 AUDIO
    TITLE "0:"
    INDEX 01 03:45:22
  TRACK 168 AUDIO
    TITLE "22:cjc171_13784"
    INDEX 01 03:45:55
  TRACK 169 AUDIO
    TITLE "0:"
    INDEX 01 03:47:46
  TRACK 170 AUDIO
    TITLE "23:cjc171_13785"
    INDEX 01 03:47:71
  TRACK 171 AUDIO
    TITLE "0:"
    INDEX 01 03:49:62
  TRACK 172 AUDIO
    TITLE "19:cjc171_13786"
    INDEX 01 03:50:64
  TRACK 173 AUDIO
    TITLE "0:"
    INDEX 01 03:52:00
  TRACK 174 AUDIO
    TITLE "20:cjc171_13787"
    INDEX 01 03:52:31
  TRACK 175 AUDIO
    TITLE "0:"
    INDEX 01 03:55:24
  TRACK 176 AUDIO
    TITLE "21:cjc171_13788"
    INDEX 01 03:56:23
  TRACK 177 AUDIO
    TITLE "0:"
    INDEX 01 03:58:69
  TRACK 178 AUDIO
    TITLE "22:cjc171_13789"
    INDEX 01 03:59:31
  TRACK 179 AUDIO
    TITLE "0:"
    INDEX 01 04:01:60
  TRACK 180 AUDIO
    TITLE "23:cjc171_13790"
    INDEX 01 04:02:16
  TRACK 181 AUDIO
    TITLE "0:"
    INDEX 01 04:04:42
  TRACK 182 AUDIO
    TITLE "19:cjc171_13791"
    INDEX 01 04:05:48
  TRACK 183 AUDIO
    TITLE "0:"
    INDEX 01 04:06:57
  TRACK 184 AUDIO
    TITLE "20:cjc171_13792"
    INDEX 01 04:07:23
  TRACK 185 AUDIO
    TITLE "0:"
    INDEX 01 04:08:32
  TRACK 186 AUDIO
    TITLE "21:cjc171_13793"
    INDEX 01 04:09:24
  TRACK 187 AUDIO
    TITLE "0:"
    INDEX 01 04:11:48
  TRACK 188 AUDIO
    TITLE "22:cjc171_13794"
    INDEX 01 04:12:14
  TRACK 189 AUDIO
    TITLE "0:"
    INDEX 01 04:14:15
  TRACK 190 AUDIO
    TITLE "23:cjc171_13795"
    INDEX 01 04:14:49
  TRACK 191 AUDIO
    TITLE "0:"
    INDEX 01 04:16:51
  TRACK 192 AUDIO
    TITLE "19:cjc171_13796"
    INDEX 01 04:17:57
  TRACK 193 AUDIO
    TITLE "0:"
    INDEX 01 04:19:15
  TRACK 194 AUDIO
    TITLE "20:cjc171_13797"
    INDEX 01 04:19:56
  TRACK 195 AUDIO
    TITLE "0:"
    INDEX 01 04:21:10
  TRACK 196 AUDIO
    TITLE "21:cjc171_13798"
    INDEX 01 04:22:11
  TRACK 197 AUDIO
    TITLE "0:"
    INDEX 01 04:24:00
  TRACK 198 AUDIO
    TITLE "22:cjc171_13799"
    INDEX 01 04:24:37
  TRACK 199 AUDIO
    TITLE "0:"
    INDEX 01 04:26:44
  TRACK 200 AUDIO
    TITLE "23:cjc171_13800"
    INDEX 01 04:26:71
  TRACK 201 AUDIO
    TITLE "0:"
    INDEX 01 04:29:03
  TRACK 202 AUDIO
    TITLE "19:cjc171_13801"
    INDEX 01 04:30:06
  TRACK 203 AUDIO
    TITLE "0:"
    INDEX 01 04:31:45
  TRACK 204 AUDIO
    TITLE "20:cjc171_13802"
    INDEX 01 04:32:09
  TRACK 205 AUDIO
    TITLE "0:"
    INDEX 01 04:35:06
  TRACK 206 AUDIO
    TITLE "21:cjc171_13803"
    INDEX 01 04:36:05
  TRACK 207 AUDIO
    TITLE "0:"
    INDEX 01 04:38:28
  TRACK 208 AUDIO
    TITLE "22:cjc171_13804"
    INDEX 01 04:38:67
  TRACK 209 AUDIO
    TITLE "0:"
    INDEX 01 04:41:16
  TRACK 210 AUDIO
    TITLE "23:cjc171_13805"
    INDEX 01 04:41:46
  TRACK 211 AUDIO
    TITLE "0:"
    INDEX 01 04:43:68
  TRACK 212 AUDIO
    TITLE "19:cjc171_13806"
    INDEX 01 04:44:67
  TRACK 213 AUDIO
    TITLE "0:"
    INDEX 01 04:46:15
  TRACK 214 AUDIO
    TITLE "20:cjc171_13807"
    INDEX 01 04:46:51
  TRACK 215 AUDIO
    TITLE "0:"
    INDEX 01 04:48:55
  TRACK 216 AUDIO
    TITLE "21:cjc171_13808"
    INDEX 01 04:49:55
  TRACK 217 AUDIO
    TITLE "0:"
    INDEX 01 04:52:14
  TRACK 218 AUDIO
    TITLE "22:cjc171_13809"
    INDEX 01 04:52:47
  TRACK 219 AUDIO
    TITLE "0:"
    INDEX 01 04:55:16
  TRACK 220 AUDIO
    TITLE "23:cjc171_13810"
    INDEX 01 04:55:38
  TRACK 221 AUDIO
    TITLE "0:"
    INDEX 01 04:58:07
  TRACK 222 AUDIO
    TITLE "19:cjc171_13811"
    INDEX 01 04:59:02
  TRACK 223 AUDIO
    TITLE "0:"
    INDEX 01 04:59:73
  TRACK 224 AUDIO
    TITLE "20:cjc171_13812"
    INDEX 01 05:00:35
  TRACK 225 AUDIO
    TITLE "0:"
    INDEX 01 05:02:38
  TRACK 226 AUDIO
    TITLE "21:cjc171_13813"
    INDEX 01 05:03:37
  TRACK 227 AUDIO
    TITLE "0:"
    INDEX 01 05:06:02
  TRACK 228 AUDIO
    TITLE "22:cjc171_13814"
    INDEX 01 05:06:42
  TRACK 229 AUDIO
    TITLE "0:"
    INDEX 01 05:09:10
  TRACK 230 AUDIO
    TITLE "23:cjc171_13815"
    INDEX 01 05:09:36
  TRACK 231 AUDIO
    TITLE "0:"
    INDEX 01 05:12:05
  TRACK 232 AUDIO
    TITLE "19:cjc171_13816"
    INDEX 01 05:13:02
  TRACK 233 AUDIO
    TITLE "0:"
    INDEX 01 05:14:27
  TRACK 234 AUDIO
    TITLE "20:cjc171_13817"
    INDEX 01 05:14:66
  TRACK 235 AUDIO
    TITLE "0:"
    INDEX 01 05:17:65
  TRACK 236 AUDIO
    TITLE "21:cjc171_13818"
    INDEX 01 05:18:66
  TRACK 237 AUDIO
    TITLE "0:"
    INDEX 01 05:21:43
  TRACK 238 AUDIO
    TITLE "22:cjc171_13819"
    INDEX 01 05:22:03
  TRACK 239 AUDIO
    TITLE "0:"
    INDEX 01 05:25:19
  TRACK 240 AUDIO
    TITLE "23:cjc171_13820"
    INDEX 01 05:25:41
  TRACK 241 AUDIO
    TITLE "0:"
    INDEX 01 05:28:57
  TRACK 242 AUDIO
    TITLE "19:cjc171_13821"
    INDEX 01 05:29:56
  TRACK 243 AUDIO
    TITLE "0:"
    INDEX 01 05:31:04
  TRACK 244 AUDIO
    TITLE "20:cjc171_13822"
    INDEX 01 05:31:38
  TRACK 245 AUDIO
    TITLE "0:"
    INDEX 01 05:32:64
  TRACK 246 AUDIO
    TITLE "21:cjc171_13823"
    INDEX 01 05:33:64
  TRACK 247 AUDIO
    TITLE "0:"
    INDEX 01 05:35:51
  TRACK 248 AUDIO
    TITLE "22:cjc171_13824"
    INDEX 01 05:36:09
  TRACK 249 AUDIO
    TITLE "0:"
    INDEX 01 05:37:71
  TRACK 250 AUDIO
    TITLE "23:cjc171_13825"
    INDEX 01 05:38:20
  TRACK 251 AUDIO
    TITLE "0:"
    INDEX 01 05:40:05
  TRACK 252 AUDIO
    TITLE "19:cjc171_13826"
    INDEX 01 05:41:09
  TRACK 253 AUDIO
    TITLE "0:"
    INDEX 01 05:42:31
  TRACK 254 AUDIO
    TITLE "20:cjc171_13827"
    INDEX 01 05:42:69
  TRACK 255 AUDIO
    TITLE "0:"
    INDEX 01 05:45:18
  TRACK 256 AUDIO
    TITLE "21:cjc171_13828"
    INDEX 01 05:46:19
  TRACK 257 AUDIO
    TITLE "0:"
    INDEX 01 05:48:42
  TRACK 258 AUDIO
    TITLE "22:cjc171_13829"
    INDEX 01 05:49:04
  TRACK 259 AUDIO
    TITLE "0:"
    INDEX 01 05:51:44
  TRACK 260 AUDIO
    TITLE "23:cjc171_13830"
    INDEX 01 05:52:01
  TRACK 261 AUDIO
    TITLE "0:"
    INDEX 01 05:54:39
  TRACK 262 AUDIO
    TITLE "19:cjc171_13831"
    INDEX 01 05:55:44
  TRACK 263 AUDIO
    TITLE "0:"
    INDEX 01 05:57:04
  TRACK 264 AUDIO
    TITLE "20:cjc171_13832"
    INDEX 01 05:57:43
  TRACK 265 AUDIO
    TITLE "0:"
    INDEX 01 06:00:69
  TRACK 266 AUDIO
    TITLE "21:cjc171_13833"
    INDEX 01 06:01:70
  TRACK 267 AUDIO
    TITLE "0:"
    INDEX 01 06:03:51
  TRACK 268 AUDIO
    TITLE "22:cjc171_13834"
    INDEX 01 06:04:15
  TRACK 269 AUDIO
    TITLE "0:"
    INDEX 01 06:06:34
  TRACK 270 AUDIO
    TITLE "23:cjc171_13835"
    INDEX 01 06:06:65
  TRACK 271 AUDIO
    TITLE "0:"
    INDEX 01 06:09:09
  TRACK 272 AUDIO
    TITLE "19:cjc171_13836"
    INDEX 01 06:10:12
  TRACK 273 AUDIO
    TITLE "0:"
    INDEX 01 06:11:15
  TRACK 274 AUDIO
    TITLE "20:cjc171_13837"
    INDEX 01 06:11:47
  TRACK 275 AUDIO
    TITLE "0:"
    INDEX 01 06:13:12
  TRACK 276 AUDIO
    TITLE "21:cjc171_13838"
    INDEX 01 06:14:08
  TRACK 277 AUDIO
    TITLE "0:"
    INDEX 01 06:16:28
  TRACK 278 AUDIO
    TITLE "22:cjc171_13839"
    INDEX 01 06:16:64
  TRACK 279 AUDIO
    TITLE "0:"
    INDEX 01 06:18:47
  TRACK 280 AUDIO
    TITLE "23:cjc171_13840"
    INDEX 01 06:18:66
  TRACK 281 AUDIO
    TITLE "0:"
    INDEX 01 06:20:50
  TRACK 282 AUDIO
    TITLE "19:cjc171_13841"
    INDEX 01 06:21:45
  TRACK 283 AUDIO
    TITLE "0:"
    INDEX 01 06:23:09
  TRACK 284 AUDIO
    TITLE "20:cjc171_13842"
    INDEX 01 06:23:44
  TRACK 285 AUDIO
    TITLE "0:"
    INDEX 01 06:25:69
  TRACK 286 AUDIO
    TITLE "21:cjc171_13843"
    INDEX 01 06:26:70
  TRACK 287 AUDIO
    TITLE "0:"
    INDEX 01 06:29:66
  TRACK 288 AUDIO
    TITLE "22:cjc171_13844"
    INDEX 01 06:30:25
  TRACK 289 AUDIO
    TITLE "0:"
    INDEX 01 06:34:03
  TRACK 290 AUDIO
    TITLE "23:cjc171_13845"
    INDEX 01 06:34:24
  TRACK 291 AUDIO
    TITLE "0:"
    INDEX 01 06:38:05
  TRACK 292 AUDIO
    TITLE "19:cjc171_13846"
    INDEX 01 06:39:02
  TRACK 293 AUDIO
    TITLE "0:"
    INDEX 01 06:40:17
  TRACK 294 AUDIO
    TITLE "20:cjc171_13847"
    INDEX 01 06:40:48
  TRACK 295 AUDIO
    TITLE "0:"
    INDEX 01 06:43:02
  TRACK 296 AUDIO
    TITLE "21:cjc171_13848"
    INDEX 01 06:44:01
  TRACK 297 AUDIO
    TITLE "0:"
    INDEX 01 06:46:08
  TRACK 298 AUDIO
    TITLE "22:cjc171_13849"
    INDEX 01 06:46:41
  TRACK 299 AUDIO
    TITLE "0:"
    INDEX 01 06:48:44
  TRACK 300 AUDIO
    TITLE "23:cjc171_13850"
    INDEX 01 06:48:70
  TRACK 301 AUDIO
    TITLE "0:"
    INDEX 01 06:50:72
